{"title":"Spawn - HBO Animated Series 1997 [DVDrip x264]","magnet":"magnet:?xt=urn:btih:29b4ca9d9e10bc11a59e7b0aef665242fdb8c071&dn=Spawn+-+HBO+Animated+Series+1997+%5BDVDrip+x264%5D&tr=udp%3A%2F%2Ftracker.leechers-paradise.org%3A6969&tr=udp%3A%2F%2Fzer0day.ch%3A1337&tr=udp%3A%2F%2Fopen.demonii.com%3A1337&tr=udp%3A%2F%2Ftracker.coppersurfer.tk%3A6969&tr=udp%3A%2F%2Fexodus.desync.com%3A6969","uploader":"_Voldrix_","categoryP":"video","categoryS":"tv_shows","size":"4819875686","seeders":"13","leechers":"9","description":"Spawn series individual eps. deinterlaced\r\n\r\nMediainfo\r\n---\r\nFormat                                   : MPEG-4\r\nFile size                                : 237 MiB\r\nDuration                                 : 26 min 51 s\r\nOverall bit rate                         : 1 235 kb/s\r\n\r\nVideo\r\nFormat                                   : AVC\r\nFormat profile                           : High@L4.2\r\nFormat settings                          : CABAC / 8 Ref Frames\r\nFormat settings, CABAC                   : Yes\r\nFormat settings, ReFrames                : 8 frames\r\nBit rate                                 : 670 kb/s\r\nWidth                                    : 720 pixels\r\nHeight                                   : 480 pixels\r\nDisplay aspect ratio                     : 4:3\r\nFrame rate mode                          : Constant\r\nFrame rate                               : 29.970 (30000/1001) FPS\r\nStandard                                 : NTSC\r\nColor space                              : YUV\r\nChroma subsampling                       : 4:2:0\r\nBit depth                                : 8 bits\r\nScan type                                : Progressive\r\nStream size                              : 129 MiB (54%)\r\nEncoding settings                        : cabac=1 / ref=9 / deblock=1:0:0 / analyse=0x3:0x113 / me=umh / subme=8 / psy=1 / psy_rd=1.00:0.00 / mixed_ref=1 / me_range=16 / chroma_me=1 / trellis=0 / 8x8dct=1 / cqm=0 / deadzone=21,11 / fast_pskip=1 / chroma_qp_offset=-2 / nr=0 / decimate=1 / interlaced=0 / constrained_intra=0 / bframes=16 / b_pyramid=1 / b_adapt=2 / b_bias=0 / direct=3 / keyint_min=25 / scenecut=40 / intra_refresh=0 / rc_lookahead=60 / rc=crf / mbtree=1 / crf=20.0\r\n\r\nAudio\r\nFormat                                   : AAC\r\nFormat profile                           : LC\r\nBit rate mode                            : Constant\r\nBit rate                                 : 556 kb/s\r\nChannel(s)                               : 6 channels\r\nChannel positions                        : Front: L C R, Side: L R, LFE\r\nSampling rate                            : 48.0 kHz\r\nFrame rate                               : 46.875 FPS (1024 SPF)\r\nStream size                              : 107 MiB (45%)","last_updated":"2018-06-07T12:08:04.096Z","parsed":{"xt":"urn:btih:29b4ca9d9e10bc11a59e7b0aef665242fdb8c071","dn":"Spawn - HBO Animated Series 1997 [DVDrip x264]","tr":["udp://exodus.desync.com:6969","udp://open.demonii.com:1337","udp://tracker.coppersurfer.tk:6969","udp://tracker.leechers-paradise.org:6969","udp://zer0day.ch:1337"],"infoHash":"29b4ca9d9e10bc11a59e7b0aef665242fdb8c071","infoHashBuffer":{"type":"Buffer","data":[41,180,202,157,158,16,188,17,165,158,123,10,239,102,82,66,253,184,192,113]},"name":"Spawn - HBO Animated Series 1997 [DVDrip x264]","announce":["udp://exodus.desync.com:6969","udp://open.demonii.com:1337","udp://tracker.coppersurfer.tk:6969","udp://tracker.leechers-paradise.org:6969","udp://zer0day.ch:1337"],"urlList":[]}}